<svg width="29" height="30" viewBox="0 0 29 30" fill="none" xmlns="http://www.w3.org/2000/svg">
<ellipse cx="14.5" cy="15" rx="14.5" ry="15" fill="#F8C1A5"/>
<path d="M20.5 9H16.5C15.6719 9 15 9.67188 15 10.5V14.5C15 15.3281 15.6719 16 16.5 16H19V18C19 19.1031 18.1031 20 17 20H16.75C16.3344 20 16 20.3344 16 20.75V22.25C16 22.6656 16.3344 23 16.75 23H17C19.7625 23 22 20.7625 22 18V10.5C22 9.67188 21.3281 9 20.5 9ZM11.5 9H7.5C6.67188 9 6 9.67188 6 10.5V14.5C6 15.3281 6.67188 16 7.5 16H10V18C10 19.1031 9.10312 20 8 20H7.75C7.33437 20 7 20.3344 7 20.75V22.25C7 22.6656 7.33437 23 7.75 23H8C10.7625 23 13 20.7625 13 18V10.5C13 9.67188 12.3281 9 11.5 9Z" fill="white"/>
</svg>
